<svg width="33" height="34" viewBox="0 0 33 34" fill="none" xmlns="http://www.w3.org/2000/svg">
<path d="M16.3135 0.799805C24.5586 0.79998 31.3827 6.87854 32.4727 14.7803L32.043 14.8701C31.5377 14.9749 31.036 14.6785 30.8848 14.1855L28.8877 7.67383C28.6024 6.74502 27.2927 6.72945 26.9834 7.65137L24.8164 14.1133C24.6523 14.6025 24.143 14.8872 23.6406 14.7705L16.79 13.1787C15.8228 12.954 15.1538 14.1243 15.8389 14.8428L20.4688 19.6992C20.8436 20.0923 20.8362 20.7136 20.4512 21.0977L15.6943 25.8418C14.9907 26.5438 15.6296 27.7301 16.6025 27.5283L23.4932 26.0996C23.9983 25.995 24.5002 26.2923 24.6514 26.7852L25.7109 30.2412C23.0534 32.1046 19.8117 33.2001 16.3135 33.2002C7.31129 33.2 0.000158748 25.9538 0 17C0 8.04611 7.3112 0.80005 16.3135 0.799805Z" fill="#D9D9D9"/>
</svg>
