<svg width="33" height="33" viewBox="0 0 33 33" fill="none" xmlns="http://www.w3.org/2000/svg">
  <g id="b5d1264d">
    <path id="d491f3f3" d="M16.3135 0C24.5586 0.000174831 31.3827 6.07874 32.4727 13.9805L32.043 14.0703C31.5377 14.1751 31.036 13.8787 30.8848 13.3857L28.8877 6.87402C28.6024 5.94521 27.2927 5.92965 26.9834 6.85156L24.8164 13.3135C24.6523 13.8027 24.143 14.0874 23.6406 13.9707L16.79 12.3789C15.8228 12.1542 15.1538 13.3245 15.8389 14.043L20.4688 18.8994C20.8436 19.2925 20.8362 19.9138 20.4512 20.2979L15.6943 25.042C14.9907 25.744 15.6296 26.9303 16.6025 26.7285L23.4932 25.2998C23.9983 25.1952 24.5002 25.4925 24.6514 25.9854L25.7109 29.4414C23.0534 31.3048 19.8117 32.4003 16.3135 32.4004C7.31129 32.4001 0.000158748 25.1539 0 16.2002C0 7.24631 7.3112 0.00024565 16.3135 0Z" fill="white"></path>
  </g>
</svg>