<svg width="125" height="56" viewBox="0 0 125 56" fill="none" xmlns="http://www.w3.org/2000/svg">
<path d="M20.583 7.56153C30.9949 7.56153 39.6091 15.2421 40.9756 25.2197L40.4502 25.3291C39.945 25.4339 39.4432 25.1366 39.292 24.6436L36.4092 15.2441C36.1241 14.315 34.8142 14.2995 34.5049 15.2217L31.377 24.5498C31.2129 25.039 30.7035 25.3237 30.2012 25.207L20.2832 22.9024C19.3159 22.6776 18.647 23.8479 19.332 24.5664L26.0859 31.6494C26.4607 32.0425 26.4523 32.6638 26.0674 33.0479L19.1299 39.9678C18.4262 40.6698 19.0651 41.857 20.0381 41.6553L30.0127 39.5869C30.5179 39.4822 31.0197 39.7785 31.1709 40.2715L32.5146 44.6543C29.148 47.0366 25.0297 48.4385 20.583 48.4385C9.2224 48.4384 0 39.2948 0 28C0.000170528 16.7054 9.2225 7.56164 20.583 7.56153Z" fill="white"/>
<path d="M55.4074 16.2273H61.4756L65.3051 31.8636H65.5779L74.5665 16.2273H80.6347L76.771 39.5H71.9983L74.521 24.3523H74.3165L65.8165 39.3864H62.5551L59.0551 24.2955H58.8619L56.3165 39.5H51.5438L55.4074 16.2273ZM89.6032 39.8409C87.8229 39.8409 86.3494 39.4621 85.1827 38.7045C84.0161 37.9394 83.1941 36.8788 82.7168 35.5227C82.2471 34.1591 82.16 32.572 82.4555 30.7614C82.7434 28.9735 83.3418 27.4091 84.2509 26.0682C85.16 24.7273 86.3153 23.6856 87.7168 22.9432C89.1184 22.1932 90.6979 21.8182 92.4555 21.8182C94.2282 21.8182 95.6979 22.2008 96.8646 22.9659C98.0312 23.7235 98.8532 24.7841 99.3305 26.1477C99.8077 27.5114 99.8987 29.0985 99.6032 30.9091C99.3077 32.6894 98.7017 34.25 97.785 35.5909C96.8684 36.9318 95.713 37.9773 94.3191 38.7273C92.9252 39.4697 91.3532 39.8409 89.6032 39.8409ZM90.0805 36.0909C90.8987 36.0909 91.6221 35.8598 92.2509 35.3977C92.8873 34.928 93.4138 34.2917 93.8305 33.4886C94.2547 32.678 94.5502 31.7614 94.7168 30.7386C94.8835 29.7311 94.8949 28.8371 94.7509 28.0568C94.607 27.2689 94.304 26.6477 93.8418 26.1932C93.3873 25.7386 92.7623 25.5114 91.9668 25.5114C91.1487 25.5114 90.4214 25.7462 89.785 26.2159C89.1487 26.678 88.6221 27.3144 88.2055 28.125C87.7888 28.9356 87.4971 29.8561 87.3305 30.8864C87.1714 31.8864 87.16 32.7803 87.2964 33.5682C87.4327 34.3485 87.732 34.9659 88.1941 35.4205C88.6562 35.8674 89.285 36.0909 90.0805 36.0909ZM110.984 16.2273L107.12 39.5H102.279L106.143 16.2273H110.984ZM124.151 22.0455L123.549 25.6818H113.026L113.64 22.0455H124.151ZM116.708 17.8636H121.549L118.844 34.1364C118.768 34.5833 118.78 34.9318 118.878 35.1818C118.977 35.4242 119.14 35.5947 119.367 35.6932C119.602 35.7917 119.882 35.8409 120.208 35.8409C120.435 35.8409 120.666 35.822 120.901 35.7841C121.136 35.7386 121.314 35.7045 121.435 35.6818L121.617 39.2841C121.344 39.3674 120.977 39.4583 120.515 39.5568C120.06 39.6553 119.522 39.7159 118.901 39.7386C117.719 39.7841 116.719 39.6288 115.901 39.2727C115.083 38.9091 114.496 38.3523 114.14 37.6023C113.784 36.8523 113.708 35.9091 113.912 34.7727L116.708 17.8636Z" fill="white"/>
</svg>
